<?xml version="1.0" encoding="utf-8"?>
<!-- Generator: Adobe Illustrator 24.3.0, SVG Export Plug-In . SVG Version: 6.00 Build 0)  -->
<svg version="1.1" id="Layers" xmlns="http://www.w3.org/2000/svg" xmlns:xlink="http://www.w3.org/1999/xlink" x="0px" y="0px"
	 viewBox="0 0 91.6 77.7" style="enable-background:new 0 0 91.6 77.7;" xml:space="preserve">
<style type="text/css">
	.st0{fill:#132B73;}
	.st1{fill:#FFFFFF;}
</style>
<path class="st0" d="M37.5,53.4c-10.8,0-19.6-8.8-19.6-19.6s8.8-19.6,19.6-19.6c10.8,0,19.6,8.8,19.6,19.6
	C57.1,44.6,48.3,53.4,37.5,53.4z M37.5,18.2c-8.6,0-15.6,7-15.6,15.6s7,15.6,15.6,15.6c8.6,0,15.6-7,15.6-15.6
	C53.1,25.2,46.1,18.2,37.5,18.2z M67.1,60.4H7.8c-4.3,0-7.8-3.5-7.8-7.8V17.9c0-4.3,3.5-7.8,7.8-7.8h7.7c1.1,0,2.1-0.6,2.6-1.5
	l2.8-4.7C22.4,1.5,25,0,27.8,0H47c2.8,0,5.4,1.5,6.9,3.9l2.8,4.7c0.6,0.9,1.5,1.5,2.6,1.5H67c4.3,0,7.8,3.5,7.8,7.8v34.7
	c0.1,4.2-3.3,7.7-7.5,7.8C67.2,60.4,67.2,60.4,67.1,60.4z M7.8,14.1c-2.1,0-3.8,1.7-3.8,3.8v34.7c0,2.1,1.7,3.8,3.8,3.8h59.3
	c2.1,0,3.8-1.7,3.8-3.8V17.9c0-2.1-1.7-3.8-3.8-3.8h-7.7c-2.5,0-4.8-1.3-6.1-3.4L50.5,6c-0.7-1.2-2-1.9-3.4-1.9H27.9
	c-1.4,0-2.7,0.7-3.4,1.9l-2.8,4.7c-1.3,2.1-3.6,3.4-6.1,3.4H7.8z M16.2,22.8H8.4c-1.1,0-2-0.9-2-2s0.9-2,2-2h7.8c1.1,0,2,0.9,2,2
	S17.3,22.8,16.2,22.8z"/>
<circle class="st1" cx="72.5" cy="58.6" r="15.2"/>
<path class="st0" d="M72.5,39.5c-10.5,0-19.1,8.6-19.1,19.1S62,77.7,72.5,77.7s19.1-8.6,19.1-19.1S83,39.5,72.5,39.5z M79.5,60.1H74
	v5.5c0,0.8-0.7,1.5-1.5,1.5S71,66.4,71,65.6v-5.5h-5.5c-0.8,0-1.5-0.7-1.5-1.5s0.7-1.5,1.5-1.5H71v-5.5c0-0.8,0.7-1.5,1.5-1.5
	s1.5,0.7,1.5,1.5v5.5h5.5c0.8,0,1.5,0.7,1.5,1.5S80.3,60.1,79.5,60.1z"/>
</svg>
