<?xml version="1.0" encoding="utf-8"?>
<!-- Generator: Adobe Illustrator 24.3.0, SVG Export Plug-In . SVG Version: 6.00 Build 0)  -->
<svg version="1.1" id="Layers" xmlns="http://www.w3.org/2000/svg" xmlns:xlink="http://www.w3.org/1999/xlink" x="0px" y="0px"
	 viewBox="0 0 91.6 91.6" style="enable-background:new 0 0 91.6 91.6;" xml:space="preserve">
<style type="text/css">
	.st0{fill:#132B73;}
	.st1{fill:#FFFFFF;}
</style>
<g>
	<path class="st0" d="M56.8,69.9c-11.1,5-26.7-5.7-34.9-23.9S16,9.1,27.1,4.1c3.4-1.5,7.1-1.6,11-0.4c0.2,0.1,0.3-0.2,0.1-0.4
		C32-0.2,25.6-1.1,20.1,1.4C7.6,7,5,28.4,14.3,49c9.3,20.7,27,32.8,39.6,27.2c4.7-2.1,8-6.5,9.8-12.2c0.1-0.2-0.2-0.3-0.3-0.2
		C61.7,66.6,59.5,68.7,56.8,69.9z"/>
	<path class="st0" d="M32.2,10.5c-4.1,0.2-7.9,1.5-11.2,3.7c-0.2,0.1,0,0.4,0.2,0.3c1.8-0.6,3.8-1,5.8-1.1c8.2-0.3,16.9,5,22,13.3
		h6.8C51.1,16.8,41.3,10.2,32.2,10.5z"/>
	<path class="st0" d="M44.1,66.5c-0.2,0.1-0.1,0.4,0.2,0.3c4.4-1.3,8.4-4,11.6-7.6h-3.9C49.7,62.2,47.1,64.7,44.1,66.5z"/>
	<g>
		<path class="st0" d="M36.4,55.7c-0.3,0-0.6-0.1-0.7-0.2c-0.2-0.1-0.3-0.2-0.4-0.4c-0.1-0.1-0.1-0.3-0.1-0.4c0-0.1,0-0.2,0-0.3
			c0-2.2-0.2-4.2-0.4-6c-0.3-1.8-0.6-3.5-0.9-5c-0.4-1.5-0.8-2.8-1.2-3.9c-0.4-1.1-0.8-2.1-1.1-2.8c0-0.1-0.1-0.2-0.3-0.5
			c-0.2-0.3-0.3-0.6-0.5-0.9c-0.2-0.3-0.3-0.6-0.5-0.9C30.1,34,30,33.9,30,33.8c-0.1-0.3-0.2-0.5-0.1-0.9c0-0.3,0.1-0.7,0.2-1
			c0.1-0.3,0.3-0.7,0.5-1c0.2-0.3,0.5-0.6,0.7-0.8c0.3-0.2,0.6-0.4,0.9-0.5c0.3-0.1,0.6-0.1,0.9,0c0.3,0.1,0.6,0.3,0.9,0.6
			c0.3,0.3,0.6,0.8,0.8,1.4c0.1,0.3,0.3,0.6,0.4,0.8c0.1,0.2,0.2,0.4,0.3,0.6c0.1,0.2,0.2,0.4,0.2,0.5c0.2,0.4,0.4,0.8,0.6,1.1
			c0.2,0.4,0.5,0.7,0.8,1c0.3,0.3,0.6,0.6,0.9,0.8c0.3,0.2,0.7,0.3,1,0.3c0.3,0,0.6-0.1,0.8-0.3c0.2-0.2,0.5-0.4,0.6-0.7
			c0.2-0.3,0.3-0.6,0.5-1c0.1-0.4,0.2-0.7,0.3-1.1c0.1-0.3,0.2-0.7,0.2-1c0-0.3,0.1-0.5,0.1-0.7c0-0.1,0-0.3,0.1-0.5
			c0-0.2,0.1-0.5,0.2-0.7c0.1-0.2,0.3-0.4,0.5-0.6c0.2-0.2,0.5-0.2,0.8-0.2c0,0,0.1,0,0.3,0c0.2,0,0.3,0.1,0.5,0.2
			c0.2,0.1,0.3,0.4,0.5,0.7s0.2,0.8,0.2,1.3c0,0.4,0,0.9,0.1,1.5c0.1,0.6,0.2,1.1,0.4,1.7c0,0.1,0.1,0.2,0.2,0.4
			c0.1,0.2,0.2,0.3,0.3,0.5c0.1,0.2,0.2,0.3,0.3,0.4c0.1,0.1,0.3,0.2,0.4,0.2c0.4,0,0.8-0.1,1-0.4c0.6-0.6,0.9-2,0.8-4.1
			c0-0.3,0-0.5,0.1-0.8c0-0.3,0.1-0.5,0.2-0.8c0.1-0.2,0.2-0.4,0.4-0.6c0.2-0.2,0.4-0.2,0.7-0.2c0.3,0,0.6,0.1,0.8,0.3
			c0.2,0.2,0.4,0.4,0.5,0.6c0.1,0.2,0.2,0.5,0.2,0.7c0,0.2,0.1,0.4,0.1,0.5v0c0,0,0,0,0,0c0,0.3,0.1,0.7,0.1,1.1
			c0,0.4,0,0.9-0.1,1.3c0,0.5-0.1,1-0.2,1.5c-0.1,0.5-0.2,1-0.4,1.5c-0.4,1.2-0.9,2.2-1.6,2.9c-0.7,0.7-1.5,1.1-2.4,1.3
			c0,0-0.2,0-0.4,0.1c-0.2,0-0.4,0.1-0.7,0c-0.3,0-0.6-0.1-1-0.2c-0.4-0.1-0.7-0.4-1.1-0.8c-0.1-0.1-0.3-0.3-0.4-0.5
			c-0.1-0.2-0.2-0.3-0.4-0.5c-0.4,0.5-0.8,0.9-1.4,1.2c-0.3,0.2-0.7,0.4-1,0.5c-0.4,0.1-0.7,0.2-1,0.2c-0.3,0-0.5,0.1-0.7,0.1
			c-0.2,0-0.3,0-0.3,0c0.2,1.1,0.4,2.2,0.4,3.3c0.1,1.1,0.1,2.1,0,3c0,0.9-0.1,1.7-0.2,2.3c-0.1,0.6-0.1,0.9-0.1,1
			c-0.1,0.6-0.2,1.2-0.3,1.7c-0.1,0.5-0.2,1-0.3,1.3v0c-0.1,0.4-0.3,0.6-0.6,0.8C36.9,55.7,36.7,55.8,36.4,55.7z"/>
		<path class="st0" d="M71.3,38.7c0.2,0.4,0.3,0.8,0.2,1.2c-0.1,0.4-0.2,0.8-0.5,1.2c-0.2,0.4-0.5,0.7-0.9,1c-0.3,0.3-0.7,0.5-1,0.6
			c-0.8,0.3-1.5,0.6-2.2,1c-0.7,0.4-1.5,0.8-2.2,1.3c-3.6,2.5-6.4,5.8-8.4,10c-0.1,0.2-0.2,0.4-0.4,0.5c-0.2,0.1-0.4,0.2-0.6,0.2
			c-0.4,0-0.7-0.2-1-0.5c-0.3-0.3-0.4-0.7-0.3-1.3c0.2-1.2,0.5-2.3,0.9-3.4c0.4-1,0.9-2,1.4-2.9c0.5-0.9,1.1-1.7,1.7-2.4
			c0.6-0.7,1.2-1.4,1.8-2c-0.5-0.2-0.9-0.4-1.3-0.6c-0.4-0.2-0.7-0.5-1.1-0.7c-1-0.8-1.5-1.8-1.7-3c-0.1-0.4-0.1-0.8,0-1.3
			c0.1-0.5,0.2-0.9,0.3-1.4c0.1-0.5,0.3-0.9,0.5-1.3c0.2-0.4,0.4-0.8,0.7-1.2c0.2-0.4,0.5-0.8,1-1.2c0.4-0.4,0.9-0.8,1.4-1.2
			c0.5-0.4,1-0.7,1.5-0.9c0.5-0.3,1-0.4,1.5-0.4c0.5,0,1,0,1.4,0.1c0.4,0.1,0.8,0.2,1.2,0.4c0.4,0.2,0.7,0.3,1,0.5
			c0.3,0.2,0.6,0.4,0.8,0.6c0.6,0.5,1,1.1,1.4,1.7c0.1,0.2,0.1,0.4,0.2,0.6c0,0.2,0,0.4-0.1,0.6c-0.1,0.4-0.3,0.7-0.6,0.9
			c-0.3,0.2-0.6,0.3-1,0.3c-0.2,0-0.4,0-0.6-0.2c-0.2-0.1-0.4-0.3-0.6-0.4c-0.2-0.2-0.5-0.3-0.9-0.4c-0.4-0.1-0.9-0.2-1.5-0.1
			c-0.5,0-0.9,0.2-1.4,0.5c-0.5,0.3-0.9,0.6-1.3,1c-0.4,0.3-0.7,0.7-0.9,1c-0.2,0.3-0.3,0.5-0.3,0.6c0,0.1,0.2,0.2,0.4,0.4
			c0.2,0.2,0.5,0.4,0.9,0.6c0.4,0.3,0.9,0.4,1.4,0.6c0.5,0.1,1,0.2,1.5,0.2c0.7,0,1.3,0,1.8-0.2c0.6-0.2,1.1-0.3,1.6-0.6
			c0.5-0.2,0.9-0.4,1.3-0.6c0.4-0.2,0.8-0.3,1.2-0.4c0.4-0.1,0.7,0,1,0.1C70.7,37.8,71,38.2,71.3,38.7z"/>
		<path class="st0" d="M78.9,50.1c-0.6,0-1.1-0.1-1.6-0.3c-0.5-0.2-0.9-0.5-1.3-0.9c-0.4-0.4-0.7-0.8-0.9-1.3
			c-0.2-0.5-0.3-1-0.3-1.5c0-0.5,0.1-1,0.3-1.5c0.2-0.5,0.5-0.9,0.9-1.2c0.4-0.4,0.8-0.6,1.3-0.9c0.5-0.2,1-0.3,1.6-0.3
			c0.6,0,1.1,0.1,1.5,0.3c0.5,0.2,0.9,0.5,1.3,0.9c0.4,0.4,0.6,0.8,0.9,1.3c0.2,0.5,0.3,0.9,0.3,1.4c0,0.5-0.1,1-0.3,1.5
			c-0.2,0.5-0.5,0.9-0.9,1.3c-0.4,0.4-0.8,0.7-1.3,0.9C80,50,79.5,50.1,78.9,50.1z"/>
	</g>
</g>
<g>
	<circle class="st1" cx="72.5" cy="72.5" r="15.2"/>
	<path class="st0" d="M72.5,53.4C62,53.4,53.4,62,53.4,72.5S62,91.6,72.5,91.6S91.6,83,91.6,72.5S83,53.4,72.5,53.4z M79.5,74H74
		v5.5c0,0.8-0.7,1.5-1.5,1.5S71,80.3,71,79.5V74h-5.5c-0.8,0-1.5-0.7-1.5-1.5c0-0.8,0.7-1.5,1.5-1.5H71v-5.5c0-0.8,0.7-1.5,1.5-1.5
		s1.5,0.7,1.5,1.5V71h5.5c0.8,0,1.5,0.7,1.5,1.5C81,73.3,80.3,74,79.5,74z"/>
</g>
</svg>
