<svg xmlns="http://www.w3.org/2000/svg" width="45.229" height="64.08" viewBox="0 0 45.229 64.08">
    <defs>
        <filter id="bqh0dldwaa" width="45.229" height="64.08" x="0" y="0" filterUnits="userSpaceOnUse">
            <feOffset/>
            <feGaussianBlur result="blur" stdDeviation="3"/>
            <feFlood flood-opacity=".161"/>
            <feComposite in2="blur" operator="in"/>
            <feComposite in="SourceGraphic"/>
        </filter>
    </defs>
    <g filter="url(#bqh0dldwaa)">
        <path fill="#132b73" d="M133.8 58.795c0 1.427-2.863 2.585-6.386 2.585s-6.386-1.158-6.386-2.585 2.863-2.585 6.386-2.585 6.386 1.158 6.386 2.585zm4.73-22.02s-6.319 8.808-9.43 14.323v.01a1.924 1.924 0 0 1-3.37 0V51.1c-3.112-5.515-9.43-14.323-9.43-14.323a13.614 13.614 0 1 1 22.231 0zm-5.189-6.424a5.926 5.926 0 1 0-5.926 5.926 5.925 5.925 0 0 0 5.926-5.927zm2.882-8.109a11.964 11.964 0 0 0-7.114-3.743.72.72 0 0 0-.2 1.427 10.559 10.559 0 0 1 6.261 3.293.719.719 0 0 0 .527.23.749.749 0 0 0 .488-.191.723.723 0 0 0 .037-1.017zm2.212 6.53a.74.74 0 0 0 .144-.019.723.723 0 0 0 .555-.852 11.917 11.917 0 0 0-1.34-3.523.714.714 0 0 0-1.235.718 10.332 10.332 0 0 1 1.178 3.1.707.707 0 0 0 .697.575z" transform="translate(-104.8 -6.3)"/>
    </g>
</svg>
