<svg xmlns="http://www.w3.org/2000/svg" width="68.771" height="88.619" viewBox="0 0 68.771 88.619">
    <defs>
        <style>
            .cls-2{fill:#fff;fill-rule:evenodd}
        </style>
    </defs>
    <g id="Telec">
        <text id="شرکت_مخابرات_ایران" fill="#fff" font-family="IRANSans-Medium, IRANSans" font-size="8px" font-weight="500" transform="translate(34 84.619)">
            <tspan x="-33.016" y="0">شرکت مخابرات ایران</tspan>
        </text>
        <g id="Logo">
            <path id="Path_119" d="M96.144 41.939l1.584 4.15c5.385.051 9.222 3.334 9.087 8.711H90.58q-1.362-7.222-5.219-11.008l-3.116 1.742c11.146 15.933.071 34.955-19.085 30.794v3.8h17.715l5.27-10.738 16.306.455-4.569 10.15h9.5l4.831-10.576 19.006.269c-2.789-17.565-20.073-28.541-35.075-27.749zM66.122 61.808l-1.56 3.7c7.638 3.459 16.551-5.24 8.738-13.833l-2.7 2.894c4 5.148-.7 9.48-4.478 7.239zm9.618-12.346l3.279-2.681c12.322 13.423-.242 30.885-15.7 26.648l.467-4.664c11.451 3.326 20.059-8.034 11.958-19.3z" class="cls-2" transform="translate(-63.16 -41.899)"/>
            <path id="Path_120" d="M100.058 157.226l-1.584-4.15c-5.385-.048-9.222-3.334-9.087-8.731h16.234q1.362 7.222 5.219 11.008l3.116-1.742c-11.146-15.933-.071-34.955 19.085-30.794V119h-17.714l-5.27 10.738-16.306-.443 4.569-10.148h-9.5l-4.811 10.58-19.009-.27c2.807 17.569 20.075 28.541 35.082 27.769zm30.022-19.885l1.56-3.69c-7.646-3.457-16.551 5.246-8.735 13.835l2.7-2.894c-4.007-5.147.7-9.479 4.474-7.238zm-9.622 12.33l-3.275 2.685c-12.322-13.423.242-30.885 15.7-26.652l-.467 4.664c-11.451-3.326-20.055 8.038-11.958 19.303z" class="cls-2" transform="translate(-64.271 -88.471)"/>
        </g>
    </g>
</svg>
