<svg xmlns="http://www.w3.org/2000/svg" width="68.629" height="89.997" viewBox="0 0 68.629 89.997">
    <defs>
        <style>
            .cls-1{fill:#132b73}.cls-2{fill:#da920a}
        </style>
    </defs>
    <g id="Logo_and_Type" transform="translate(.371)">
        <g id="LogoType" transform="translate(7.629 73.908)">
            <path id="Path_1" d="M651.656 824.014h.7a4.932 4.932 0 0 1 1.478.517 1.313 1.313 0 0 1 .789 1.263h-8.956v7.148a3.937 3.937 0 0 1-2.124-.445 3.469 3.469 0 0 1-.459-.459 2.39 2.39 0 0 1-.3-.416 2.332 2.332 0 0 0-.086-.459V824h8.956z" class="cls-1" transform="translate(-601.638 -816.852)"/>
            <path id="Path_2" d="M615.8 805.4l.761.072a1.977 1.977 0 0 1 .631.129 5.265 5.265 0 0 1 .789.359 1.281 1.281 0 0 1 .8 1.22 4.186 4.186 0 0 1-2.124-.416 3 3 0 0 1-.761-.89 2.388 2.388 0 0 1-.043-.258 1.776 1.776 0 0 0-.053-.216zm0 2.684l.761.043a4.444 4.444 0 0 1 .66.172 8.128 8.128 0 0 1 .761.316 1.314 1.314 0 0 1 .8 1.234v7.162a3.935 3.935 0 0 1-2.124-.445 3.474 3.474 0 0 1-.46-.459 2.427 2.427 0 0 1-.3-.416 2.33 2.33 0 0 0-.086-.459v-7.147z" class="cls-1" transform="translate(-578.598 -800.922)"/>
            <path id="Path_3" d="M589 874l.761.043a2.932 2.932 0 0 1 1.421.488 1.314 1.314 0 0 1 .8 1.234 3.934 3.934 0 0 1-2.124-.445 3.471 3.471 0 0 1-.459-.459 2.408 2.408 0 0 1-.3-.416A3.81 3.81 0 0 0 589 874z" class="cls-1" transform="translate(-555.645 -859.676)"/>
            <path id="Path_4" d="M507.149 774.2a7.15 7.15 0 0 1 2.081.287 4.238 4.238 0 0 1 .675.258 6.657 6.657 0 0 1 .7.416 4.565 4.565 0 0 1 .373.373 4.116 4.116 0 0 1 .373.517 3.445 3.445 0 0 1 .273.847v3.976l-.445.244-1.335.775a2.733 2.733 0 0 1 .545.258 5.467 5.467 0 0 1 .7.6 2.515 2.515 0 0 1 .388.574 1.625 1.625 0 0 1 .143.732v6.229h-7.449c-.258 0-.5-.014-.732-.029a7.134 7.134 0 0 1-.9-.129 5.658 5.658 0 0 1-1.292-.459 2.689 2.689 0 0 1-1.105-.818 2.085 2.085 0 0 1-.445-1.234v-3.976l.445-.244 1.335-.775a4.164 4.164 0 0 1-1.421-1 4.657 4.657 0 0 1-.359-1.177V774.2h7.449zm1.507 5.885V776.9a.981.981 0 0 0-.359-.6c-.129-.2-.517-.316-1.148-.316h-4.478v4.478a.819.819 0 0 0 .273.617 1.759 1.759 0 0 0 .373.187 2.486 2.486 0 0 0 .861.1h2.354zm0 8.439v-4.478a.694.694 0 0 0-.488-.7 4.082 4.082 0 0 0-.43-.129 2.356 2.356 0 0 0-.588-.072h-2.35l-2.124 1.292v3.186a.765.765 0 0 0 .488.732 6.18 6.18 0 0 0 1.019.172z" class="cls-1" transform="translate(-479.162 -774.2)"/>
            <path id="Path_5" d="M472.8 774.2a1.23 1.23 0 0 1 .23.014c.086.014.258.029.517.072a3.281 3.281 0 0 1 1.421.459 1.282 1.282 0 0 1 .8 1.22v14.324a3.936 3.936 0 0 1-2.124-.445 3.461 3.461 0 0 1-.459-.459 2.4 2.4 0 0 1-.3-.416 2.317 2.317 0 0 0-.086-.459V774.2z" class="cls-1" transform="translate(-456.123 -774.2)"/>
            <path id="Path_6" d="M445.9 774.2a1.231 1.231 0 0 1 .23.014c.086.014.258.029.517.072a3.281 3.281 0 0 1 1.421.459 1.282 1.282 0 0 1 .8 1.22v14.324a3.937 3.937 0 0 1-2.124-.445 3.468 3.468 0 0 1-.459-.459 2.41 2.41 0 0 1-.3-.416 2.317 2.317 0 0 0-.086-.459V774.2z" class="cls-1" transform="translate(-433.083 -774.2)"/>
            <path id="Path_7" d="M364.063 774.2c.287 0 .517.014.718.029a7.687 7.687 0 0 1 .761.115c.3.057.56.115.761.172a3.1 3.1 0 0 1 .646.287 3.65 3.65 0 0 1 .589.345 2.745 2.745 0 0 1 .517.473 1.688 1.688 0 0 1 .488 1.249v6.243h-8.956v4.521c0 .057.014.144.029.258a.693.693 0 0 0 .23.345 1.823 1.823 0 0 0 1.234.316h5.181a2.976 2.976 0 0 1 1.464.488 1.314 1.314 0 0 1 .8 1.234h-7.449c-.474 0-.861-.014-1.177-.043a3.192 3.192 0 0 1-.9-.215 5.547 5.547 0 0 1-1.378-.66 4.118 4.118 0 0 1-.8-.847 3.513 3.513 0 0 1-.129-.474q-.065-.3-.086-.431v-6.243h8.956v-4.478a.666.666 0 0 0-.488-.689 2.6 2.6 0 0 0-1.019-.215h-4.478a4.041 4.041 0 0 1-2.124-.416 2.627 2.627 0 0 1-.459-.431 2.032 2.032 0 0 1-.287-.431c-.029-.158-.057-.33-.086-.488h7.449z" class="cls-2" transform="translate(-356.6 -774.2)"/>
        </g>
        <g id="Logo" transform="translate(-.371)">
            <path id="Path_8" d="M431.04 86.3a34.313 34.313 0 0 0-51.24-29.835l31.845 10.6 3.21 28.655a3.792 3.792 0 0 1-4.929 4.033l.751 6.955 10.557 3.622a34.008 34.008 0 0 0 4.188-5.206l-6.544-2.171-.638-7.182 10.207 3.629a35.185 35.185 0 0 0 1.5-4.476l-8.674-2.86-.525-6.482 10.176 3.622c.076-.966.116-1.923.116-2.904z" class="cls-1" transform="translate(-362.411 -52)"/>
            <path id="Path_9" d="M221.388 144.5a34.628 34.628 0 0 0-4.116 4.733l8.674 2.932.659 7.11-12.594-4.486a33.621 33.621 0 0 0-1.646 4.249l11.081 3.879.566 6.482-12.912-4.609a34.318 34.318 0 0 0 51.96 33.759l-29.993-10.022-3.21-28.357a4.066 4.066 0 0 1 5.289-4.321l-.833-6.986z" class="cls-1" transform="translate(-210.8 -134.983)"/>
            <path id="Path_10" d="M463.3 220.851l-14.014-4.486a1.635 1.635 0 0 1-1.121-1.358l-.648-5.484a.524.524 0 0 1 .7-.556l11.071 3.92a2.016 2.016 0 0 0 2.675-2.14l-2.058-16.771L439.3 187l.833 6.986 13.808 4.5a1.475 1.475 0 0 1 1 1.194l.792 5.587a.643.643 0 0 1-.854.7l-10.856-3.867a2.006 2.006 0 0 0-2.665 2.14l2.089 16.514 20.6 7.058-.741-6.966z" class="cls-2" transform="translate(-415.789 -173.11)"/>
        </g>
    </g>
</svg>
