<svg xmlns="http://www.w3.org/2000/svg" width="91.735" height="111.884" viewBox="0 0 91.735 111.884">
    <defs>
        <style>
            .cls-2{fill:#7e7e7e;fill-rule:evenodd}
        </style>
    </defs>
    <g id="Telec" transform="translate(-.235)">
        <text id="شرکت_مخابرات_ایران" fill="#7e7e7e" font-family="IRANSans-Medium, IRANSans" font-size="10px" font-weight="500" transform="translate(46.235 106.884)">
            <tspan x="-41.27" y="0">شرکت مخابرات ایران</tspan>
        </text>
        <g id="Logo" transform="translate(.235)">
            <path id="Path_119" d="M107.158 41.952l2.113 5.535c7.183.069 12.3 4.447 12.122 11.62H99.737q-1.817-9.634-6.961-14.683l-4.157 2.324c14.868 21.254.1 46.628-25.458 41.077V92.9h23.63l7.03-14.324 21.751.607-6.1 13.537h12.676l6.452-14.112 25.353.359c-3.727-23.43-26.782-38.067-46.795-37.015zm-40.047 26.5l-2.081 4.943C75.224 78.006 87.108 66.4 76.681 54.94l-3.607 3.86c5.35 6.868-.93 12.646-5.963 9.656zM79.94 51.988l4.373-3.576c16.437 17.905-.322 41.2-20.948 35.547l.623-6.222C79.264 82.173 90.747 67.02 79.94 51.988z" class="cls-2" transform="translate(-63.16 -41.899)"/>
            <path id="Path_120" d="M111.765 169.991l-2.113-5.535c-7.183-.063-12.3-4.447-12.122-11.646h21.656q1.817 9.634 6.961 14.684l4.157-2.324c-14.868-21.254-.1-46.628 25.458-41.077V119h-23.63l-7.03 14.324-21.751-.592 6.1-13.537H96.77l-6.417 14.113L65 132.949c3.745 23.435 26.779 38.071 46.8 37.041zm40.047-26.525l2.081-4.923c-10.2-4.611-22.078 7-11.652 18.455l3.6-3.861c-5.345-6.866.935-12.645 5.968-9.655zm-12.835 16.448l-4.368 3.581c-16.437-17.905.322-41.2 20.948-35.552l-.623 6.222c-15.281-4.438-26.758 10.721-15.957 25.748z" class="cls-2" transform="translate(-64.028 -78.276)"/>
        </g>
    </g>
</svg>
