<svg xmlns="http://www.w3.org/2000/svg" width="98.341" height="69.49" viewBox="0 0 98.341 69.49">
    <g transform="translate(-11.176 -15.952)">
        <path fill="#154f96" d="M108.76 73.175a27.036 27.036 0 0 0-7.479 3.4 17.679 17.679 0 0 0-2.9 2.18 63.162 63.162 0 0 0-10.856 13.959c-6.436 10.839-14.735 9.539-18.119 7.4-3.228-2.044-7.483-6.24-7.639-11.363a1.1 1.1 0 0 1 .684-1.044c4.62-1.872 31.35-13.539 31.4-32.8.049-21.961-18.869-14.707-24.06-9.97S54.484 60.536 53.624 84.11a1.056 1.056 0 0 1-.688.96c-3.872 1.448-23.458 9.2-24.982 18.571a.8.8 0 0 0 1.228.8A141.916 141.916 0 0 1 52.8 91.758a1.06 1.06 0 0 1 1.42.668c1.224 3.94 6.256 16.947 19.351 16.947 11.235 0 15.563-10.623 18.459-14.083 0 0 10.919-3.672 10.919-9.807 0-3.428-5.628-2.692-5.628-2.692s2.6-2.772 5.084-3.476a13.578 13.578 0 0 0 6.927-5.376.524.524 0 0 0-.576-.764zm-48.636 7.3c.024-.992.092-1.672.092-1.672.488-17.395 6.915-25.222 10.667-28.646S88.3 41.5 88.261 57.36c-.032 13.919-19.343 22.35-22.678 23.7l-3.012 1.14a1.808 1.808 0 0 1-2.444-1.724z" transform="translate(-16.767 -23.931)"/>
        <rect width="10.331" height="9.951" fill="#ec8c22" rx="4.36" transform="rotate(-38.46 118.54 -111.76)"/>
    </g>
</svg>
